{
  "accessors": [
    {
      "bufferView": 1,
      "componentType": 5126,
      "count": 65532,
      "max": [
        19.170642852783203,
        12.77807331085205,
        36.70244216918945
      ],
      "min": [
        -22.320314407348633,
        -0.881445050239563,
        -30.907678604125977
      ],
      "type": "VEC3"
    },
    {
      "bufferView": 1,
      "byteOffset": 786384,
      "componentType": 5126,
      "count": 65532,
      "max": [
        0.9999349117279053,
        0.9999984502792358,
        0.9999859929084778
      ],
      "min": [
        -0.9999150633811951,
        -0.9607477188110352,
        -0.9991268515586853
      ],
      "type": "VEC3"
    },
    {
      "bufferView": 0,
      "componentType": 5125,
      "count": 321831,
      "type": "SCALAR"
    },
    {
      "bufferView": 1,
      "byteOffset": 1572768,
      "componentType": 5126,
      "count": 65532,
      "max": [
        31.926082611083984,
        14.03199291229248,
        33.42965316772461
      ],
      "min": [
        -22.404109954833984,
        -0.7079426050186157,
        -31.77161407470703
      ],
      "type": "VEC3"
    },
    {
      "bufferView": 1,
      "byteOffset": 2359152,
      "componentType": 5126,
      "count": 65532,
      "max": [
        0.9999349117279053,
        0.9999974370002747,
        0.9999446272850037
      ],
      "min": [
        -0.9998179078102112,
        -0.9978870749473572,
        -0.9978191256523132
      ],
      "type": "VEC3"
    },
    {
      "bufferView": 0,
      "byteOffset": 1287324,
      "componentType": 5125,
      "count": 333369,
      "type": "SCALAR"
    },
    {
      "bufferView": 1,
      "byteOffset": 3145536,
      "componentType": 5126,
      "count": 65532,
      "max": [
        27.92679786682129,
        15.214212417602539,
        23.609582901000977
      ],
      "min": [
        3.2803828716278076,
        -0.14195650815963745,
        6.697649002075195
      ],
      "type": "VEC3"
    },
    {
      "bufferView": 1,
      "byteOffset": 3931920,
      "componentType": 5126,
      "count": 65532,
      "max": [
        0.9993402361869812,
        0.9999885559082031,
        0.9999951720237732
      ],
      "min": [
        -0.9997432231903076,
        -0.670883059501648,
        -0.9997847080230713
      ],
      "type": "VEC3"
    },
    {
      "bufferView": 0,
      "byteOffset": 2620800,
      "componentType": 5125,
      "count": 331206,
      "type": "SCALAR"
    },
    {
      "bufferView": 1,
      "byteOffset": 4718304,
      "componentType": 5126,
      "count": 65532,
      "max": [
        34.23747634887695,
        14.627896308898926,
        22.066265106201172
      ],
      "min": [
        20.47659683227539,
        -0.5378837585449219,
        -3.946758985519409
      ],
      "type": "VEC3"
    },
    {
      "bufferView": 1,
      "byteOffset": 5504688,
      "componentType": 5126,
      "count": 65532,
      "max": [
        0.999911367893219,
        0.9999993443489075,
        0.9999925494194031
      ],
      "min": [
        -0.919129490852356,
        -0.6426603198051453,
        -0.9936143159866333
      ],
      "type": "VEC3"
    },
    {
      "bufferView": 0,
      "byteOffset": 3945624,
      "componentType": 5125,
      "count": 330429,
      "type": "SCALAR"
    },
    {
      "bufferView": 1,
      "byteOffset": 6291072,
      "componentType": 5126,
      "count": 65532,
      "max": [
        35.67799758911133,
        13.729084014892578,
        10.787403106689453
      ],
      "min": [
        22.623315811157227,
        -0.5551891326904297,
        -19.78193473815918
      ],
      "type": "VEC3"
    },
    {
      "bufferView": 1,
      "byteOffset": 7077456,
      "componentType": 5126,
      "count": 65532,
      "max": [
        0.9999699592590332,
        0.9999921917915344,
        0.9997495412826538
      ],
      "min": [
        -0.9986639022827148,
        -0.8071565628051758,
        -0.9998854398727417
      ],
      "type": "VEC3"
    },
    {
      "bufferView": 0,
      "byteOffset": 5267340,
      "componentType": 5125,
      "count": 336942,
      "type": "SCALAR"
    },
    {
      "bufferView": 1,
      "byteOffset": 7863840,
      "componentType": 5126,
      "count": 65532,
      "max": [
        33.82190704345703,
        13.068366050720215,
        -6.557064056396484
      ],
      "min": [
        2.161702871322632,
        -0.5551891326904297,
        -29.851896286010742
      ],
      "type": "VEC3"
    },
    {
      "bufferView": 1,
      "byteOffset": 8650224,
      "componentType": 5126,
      "count": 65532,
      "max": [
        0.9999589920043945,
        0.9999861121177673,
        0.9860612750053406
      ],
      "min": [
        -0.9164722561836243,
        -0.9620216488838196,
        -0.9999666810035706
      ],
      "type": "VEC3"
    },
    {
      "bufferView": 0,
      "byteOffset": 6615108,
      "componentType": 5125,
      "count": 338643,
      "type": "SCALAR"
    },
    {
      "bufferView": 1,
      "byteOffset": 9436608,
      "componentType": 5126,
      "count": 65532,
      "max": [
        29.248550415039063,
        13.184837341308594,
        -17.32321548461914
      ],
      "min": [
        2.8477907180786133,
        0.20725303888320923,
        -29.743309020996094
      ],
      "type": "VEC3"
    },
    {
      "bufferView": 1,
      "byteOffset": 10222992,
      "componentType": 5126,
      "count": 65532,
      "max": [
        0.9999104142189026,
        0.9999910593032837,
        0.9934114217758179
      ],
      "min": [
        -0.914135217666626,
        -0.9620216488838196,
        -0.9999808669090271
      ],
      "type": "VEC3"
    },
    {
      "bufferView": 0,
      "byteOffset": 7969680,
      "componentType": 5125,
      "count": 339291,
      "type": "SCALAR"
    },
    {
      "bufferView": 1,
      "byteOffset": 11009376,
      "componentType": 5126,
      "count": 65532,
      "max": [
        15.037010192871094,
        13.475993156433105,
        36.61236572265625
      ],
      "min": [
        -20.814851760864258,
        -0.5602970123291016,
        -33.42863845825195
      ],
      "type": "VEC3"
    },
    {
      "bufferView": 1,
      "byteOffset": 11795760,
      "componentType": 5126,
      "count": 65532,
      "max": [
        0.9999503493309021,
        0.999998152256012,
        0.9998897910118103
      ],
      "min": [
        -0.9989299178123474,
        -0.9752771854400635,
        -0.9999862909317017
      ],
      "type": "VEC3"
    },
    {
      "bufferView": 0,
      "byteOffset": 9326844,
      "componentType": 5125,
      "count": 330954,
      "type": "SCALAR"
    },
    {
      "bufferView": 1,
      "byteOffset": 12582144,
      "componentType": 5126,
      "count": 65533,
      "max": [
        35.40057373046875,
        14.852925300598145,
        36.50847244262695
      ],
      "min": [
        -3.4762940406799316,
        0.866858184337616,
        -18.134033203125
      ],
      "type": "VEC3"
    },
    {
      "bufferView": 1,
      "byteOffset": 13368540,
      "componentType": 5126,
      "count": 65533,
      "max": [
        0.9999520778656006,
        0.9999971985816956,
        0.9999649524688721
      ],
      "min": [
        -0.999561607837677,
        -0.9156786799430847,
        -0.9980454444885254
      ],
      "type": "VEC3"
    },
    {
      "bufferView": 0,
      "byteOffset": 10650660,
      "componentType": 5125,
      "count": 286233,
      "type": "SCALAR"
    },
    {
      "bufferView": 1,
      "byteOffset": 14154936,
      "componentType": 5126,
      "count": 65534,
      "max": [
        32.61228942871094,
        12.523835182189941,
        36.766448974609375
      ],
      "min": [
        -10.050881385803223,
        -0.7079277038574219,
        -20.56088638305664
      ],
      "type": "VEC3"
    },
    {
      "bufferView": 1,
      "byteOffset": 14941344,
      "componentType": 5126,
      "count": 65534,
      "max": [
        0.9999653100967407,
        0.9999982714653015,
        0.9992256164550781
      ],
      "min": [
        -0.9998474717140198,
        -1.0,
        -0.9997109770774841
      ],
      "type": "VEC3"
    },
    {
      "bufferView": 0,
      "byteOffset": 11795592,
      "componentType": 5125,
      "count": 322311,
      "type": "SCALAR"
    },
    {
      "bufferView": 1,
      "byteOffset": 15727752,
      "componentType": 5126,
      "count": 65532,
      "max": [
        34.03054428100586,
        12.454814910888672,
        20.94208526611328
      ],
      "min": [
        5.232777118682861,
        -0.5551891326904297,
        -13.418523788452148
      ],
      "type": "VEC3"
    },
    {
      "bufferView": 1,
      "byteOffset": 16514136,
      "componentType": 5126,
      "count": 65532,
      "max": [
        0.9998988509178162,
        0.9974703192710876,
        0.8251129984855652
      ],
      "min": [
        -0.9860410690307617,
        -0.6090417504310608,
        -0.9997400641441345
      ],
      "type": "VEC3"
    },
    {
      "bufferView": 0,
      "byteOffset": 13084836,
      "componentType": 5125,
      "count": 316683,
      "type": "SCALAR"
    },
    {
      "bufferView": 1,
      "byteOffset": 17300520,
      "componentType": 5126,
      "count": 65532,
      "max": [
        35.15793991088867,
        9.640035629272461,
        9.613564491271973
      ],
      "min": [
        -4.7874250411987305,
        -0.6253320574760437,
        -17.696226119995117
      ],
      "type": "VEC3"
    },
    {
      "bufferView": 1,
      "byteOffset": 18086904,
      "componentType": 5126,
      "count": 65532,
      "max": [
        0.9998892545700073,
        0.9989897012710571,
        0.999992311000824
      ],
      "min": [
        -0.9838594198226929,
        -0.714049220085144,
        -0.7910976409912109
      ],
      "type": "VEC3"
    },
    {
      "bufferView": 0,
      "byteOffset": 14351568,
      "componentType": 5125,
      "count": 331224,
      "type": "SCALAR"
    },
    {
      "bufferView": 1,
      "byteOffset": 18873288,
      "componentType": 5126,
      "count": 65532,
      "max": [
        28.99267578125,
        12.336272239685059,
        -11.590115547180176
      ],
      "min": [
        -18.973155975341797,
        -0.5551891326904297,
        -30.612319946289063
      ],
      "type": "VEC3"
    },
    {
      "bufferView": 1,
      "byteOffset": 19659672,
      "componentType": 5126,
      "count": 65532,
      "max": [
        0.9925899505615234,
        0.9999279379844666,
        0.9998495578765869
      ],
      "min": [
        -0.9984495639801025,
        -0.9064236283302307,
        -0.9985010027885437
      ],
      "type": "VEC3"
    },
    {
      "bufferView": 0,
      "byteOffset": 15676464,
      "componentType": 5125,
      "count": 343146,
      "type": "SCALAR"
    },
    {
      "bufferView": 1,
      "byteOffset": 20446056,
      "componentType": 5126,
      "count": 65532,
      "max": [
        17.735334396362305,
        12.257745742797852,
        -19.84086799621582
      ],
      "min": [
        -22.901935577392578,
        -0.5551891326904297,
        -31.925561904907227
      ],
      "type": "VEC3"
    },
    {
      "bufferView": 1,
      "byteOffset": 21232440,
      "componentType": 5126,
      "count": 65532,
      "max": [
        0.999724268913269,
        0.9999970197677612,
        0.9990315437316895
      ],
      "min": [
        -0.999998927116394,
        -0.7518191337585449,
        -0.9999985694885254
      ],
      "type": "VEC3"
    },
    {
      "bufferView": 0,
      "byteOffset": 17049048,
      "componentType": 5125,
      "count": 328911,
      "type": "SCALAR"
    },
    {
      "bufferView": 1,
      "byteOffset": 22018824,
      "componentType": 5126,
      "count": 65532,
      "max": [
        25.745088577270508,
        11.152926445007324,
        36.75685501098633
      ],
      "min": [
        -21.951475143432617,
        -0.5565003156661987,
        -33.412147521972656
      ],
      "type": "VEC3"
    },
    {
      "bufferView": 1,
      "byteOffset": 22805208,
      "componentType": 5126,
      "count": 65532,
      "max": [
        0.999934732913971,
        0.9999933242797852,
        0.9993904232978821
      ],
      "min": [
        -0.9997605681419373,
        -1.0,
        -0.9999834895133972
      ],
      "type": "VEC3"
    },
    {
      "bufferView": 0,
      "byteOffset": 18364692,
      "componentType": 5125,
      "count": 307143,
      "type": "SCALAR"
    },
    {
      "bufferView": 1,
      "byteOffset": 23591592,
      "componentType": 5126,
      "count": 65532,
      "max": [
        33.89487075805664,
        11.2233304977417,
        17.72056007385254
      ],
      "min": [
        -21.85835838317871,
        -0.8572330474853516,
        -29.270084381103516
      ],
      "type": "VEC3"
    },
    {
      "bufferView": 1,
      "byteOffset": 24377976,
      "componentType": 5126,
      "count": 65532,
      "max": [
        0.9859340190887451,
        1.0,
        0.9990315437316895
      ],
      "min": [
        -0.9917201995849609,
        -1.0,
        -0.999945878982544
      ],
      "type": "VEC3"
    },
    {
      "bufferView": 0,
      "byteOffset": 19593264,
      "componentType": 5125,
      "count": 297399,
      "type": "SCALAR"
    },
    {
      "bufferView": 1,
      "byteOffset": 25164360,
      "componentType": 5126,
      "count": 65532,
      "max": [
        29.811506271362305,
        11.985360145568848,
        36.68543243408203
      ],
      "min": [
        -22.862577438354492,
        -0.5551891326904297,
        -33.3892822265625
      ],
      "type": "VEC3"
    },
    {
      "bufferView": 1,
      "byteOffset": 25950744,
      "componentType": 5126,
      "count": 65532,
      "max": [
        0.9994993209838867,
        0.9999550580978394,
        0.9989753365516663
      ],
      "min": [
        -0.9998036623001099,
        -1.0,
        -0.9999997615814209
      ],
      "type": "VEC3"
    },
    {
      "bufferView": 0,
      "byteOffset": 20782860,
      "componentType": 5125,
      "count": 291735,
      "type": "SCALAR"
    },
    {
      "bufferView": 1,
      "byteOffset": 26737128,
      "componentType": 5126,
      "count": 65532,
      "max": [
        23.18182945251465,
        9.345695495605469,
        36.69169616699219
      ],
      "min": [
        -22.7585506439209,
        -0.8572330474853516,
        -33.316810607910156
      ],
      "type": "VEC3"
    },
    {
      "bufferView": 1,
      "byteOffset": 27523512,
      "componentType": 5126,
      "count": 65532,
      "max": [
        0.9950194358825684,
        0.9999404549598694,
        0.990466296672821
      ],
      "min": [
        -0.9995520710945129,
        -1.0,
        -0.9999808669090271
      ],
      "type": "VEC3"
    },
    {
      "bufferView": 0,
      "byteOffset": 21949800,
      "componentType": 5125,
      "count": 271917,
      "type": "SCALAR"
    },
    {
      "bufferView": 1,
      "byteOffset": 28309896,
      "componentType": 5126,
      "count": 65532,
      "max": [
        25.63371467590332,
        12.210671424865723,
        36.29936981201172
      ],
      "min": [
        -22.869230270385742,
        -0.5551891326904297,
        -33.024322509765625
      ],
      "type": "VEC3"
    },
    {
      "bufferView": 1,
      "byteOffset": 29096280,
      "componentType": 5126,
      "count": 65532,
      "max": [
        0.9998797178268433,
        1.0,
        0.9999921321868896
      ],
      "min": [
        -0.9999514818191528,
        -1.0,
        -0.99982750415802
      ],
      "type": "VEC3"
    },
    {
      "bufferView": 0,
      "byteOffset": 23037468,
      "componentType": 5125,
      "count": 302397,
      "type": "SCALAR"
    },
    {
      "bufferView": 1,
      "byteOffset": 29882664,
      "componentType": 5126,
      "count": 65532,
      "max": [
        27.004446029663086,
        12.855134963989258,
        36.7620735168457
      ],
      "min": [
        -22.830184936523438,
        -0.6811155080795288,
        -33.39870071411133
      ],
      "type": "VEC3"
    },
    {
      "bufferView": 1,
      "byteOffset": 30669048,
      "componentType": 5126,
      "count": 65532,
      "max": [
        0.9972295761108398,
        1.0,
        0.9999690055847168
      ],
      "min": [
        -0.9977174401283264,
        -1.0,
        -0.9999462366104126
      ],
      "type": "VEC3"
    },
    {
      "bufferView": 0,
      "byteOffset": 24247056,
      "componentType": 5125,
      "count": 244815,
      "type": "SCALAR"
    },
    {
      "bufferView": 1,
      "byteOffset": 31455432,
      "componentType": 5126,
      "count": 65533,
      "max": [
        34.782859802246094,
        14.88173770904541,
        36.54915237426758
      ],
      "min": [
        -13.549108505249023,
        -0.4467080533504486,
        -33.41472625732422
      ],
      "type": "VEC3"
    },
    {
      "bufferView": 1,
      "byteOffset": 32241828,
      "componentType": 5126,
      "count": 65533,
      "max": [
        0.9999806880950928,
        0.9999756217002869,
        0.9992951154708862
      ],
      "min": [
        -0.9989114999771118,
        -0.9761864542961121,
        -0.9999961256980896
      ],
      "type": "VEC3"
    },
    {
      "bufferView": 0,
      "byteOffset": 25226316,
      "componentType": 5125,
      "count": 276072,
      "type": "SCALAR"
    },
    {
      "bufferView": 1,
      "byteOffset": 33028224,
      "componentType": 5126,
      "count": 65532,
      "max": [
        34.745609283447266,
        14.539945602416992,
        17.211193084716797
      ],
      "min": [
        -22.84247398376465,
        -0.26112839579582214,
        -31.867355346679688
      ],
      "type": "VEC3"
    },
    {
      "bufferView": 1,
      "byteOffset": 33814608,
      "componentType": 5126,
      "count": 65532,
      "max": [
        0.9999841451644897,
        0.9999852180480957,
        0.999999463558197
      ],
      "min": [
        -0.999986469745636,
        -0.7379778027534485,
        -0.9999942779541016
      ],
      "type": "VEC3"
    },
    {
      "bufferView": 0,
      "byteOffset": 26330604,
      "componentType": 5125,
      "count": 287439,
      "type": "SCALAR"
    },
    {
      "bufferView": 1,
      "byteOffset": 34600992,
      "componentType": 5126,
      "count": 65532,
      "max": [
        33.68667984008789,
        14.803776741027832,
        36.33928298950195
      ],
      "min": [
        -19.940887451171875,
        -0.40416717529296875,
        -33.23000717163086
      ],
      "type": "VEC3"
    },
    {
      "bufferView": 1,
      "byteOffset": 35387376,
      "componentType": 5126,
      "count": 65532,
      "max": [
        0.9998577237129211,
        0.9999991059303284,
        0.9996189475059509
      ],
      "min": [
        -0.9986639022827148,
        -0.7638242244720459,
        -0.9999632835388184
      ],
      "type": "VEC3"
    },
    {
      "bufferView": 0,
      "byteOffset": 27480360,
      "componentType": 5125,
      "count": 259965,
      "type": "SCALAR"
    },
    {
      "bufferView": 1,
      "byteOffset": 36173760,
      "componentType": 5126,
      "count": 65532,
      "max": [
        35.304039001464844,
        14.876470565795898,
        36.570003509521484
      ],
      "min": [
        -19.314966201782227,
        -0.40416717529296875,
        -33.19115447998047
      ],
      "type": "VEC3"
    },
    {
      "bufferView": 1,
      "byteOffset": 36960144,
      "componentType": 5126,
      "count": 65532,
      "max": [
        0.9996424317359924,
        0.9999939799308777,
        0.9999344944953918
      ],
      "min": [
        -0.999806821346283,
        -0.9847093820571899,
        -0.9998047947883606
      ],
      "type": "VEC3"
    },
    {
      "bufferView": 0,
      "byteOffset": 28520220,
      "componentType": 5125,
      "count": 247872,
      "type": "SCALAR"
    },
    {
      "bufferView": 1,
      "byteOffset": 37746528,
      "componentType": 5126,
      "count": 36258,
      "max": [
        35.398136138916016,
        14.938031196594238,
        36.46598815917969
      ],
      "min": [
        -19.144784927368164,
        1.1944584846496582,
        -33.04698944091797
      ],
      "type": "VEC3"
    },
    {
      "bufferView": 1,
      "byteOffset": 38181624,
      "componentType": 5126,
      "count": 36258,
      "max": [
        0.9993800520896912,
        0.9999960064888,
        0.9997495412826538
      ],
      "min": [
        -0.9994229674339294,
        -0.992043673992157,
        -0.9998854398727417
      ],
      "type": "VEC3"
    },
    {
      "bufferView": 0,
      "byteOffset": 29511708,
      "componentType": 5125,
      "count": 101208,
      "type": "SCALAR"
    }
  ],
  "asset": {
    "extras": {
      "author": "Nancy/Lanzi Luo (https://sketchfab.com/Thunk3D-Nancy)",
      "license": "CC-BY-4.0 (http://creativecommons.org/licenses/by/4.0/)",
      "source": "https://sketchfab.com/3d-models/dental-cast-d2b948e3d46540ea9e70d3b2f5352e24",
      "title": "Dental Cast"
    },
    "generator": "Sketchfab-16.82.0",
    "version": "2.0"
  },
  "bufferViews": [
    {
      "buffer": 0,
      "byteLength": 29916540,
      "name": "floatBufferViews",
      "target": 34963
    },
    {
      "buffer": 0,
      "byteLength": 38616720,
      "byteOffset": 29916540,
      "byteStride": 12,
      "name": "floatBufferViews",
      "target": 34962
    }
  ],
  "buffers": [
    {
      "byteLength": 68533260,
      "uri": "scene.bin"
    }
  ],
  "materials": [
    {
      "doubleSided": true,
      "name": "Scene_-_Root",
      "pbrMetallicRoughness": {
        "metallicFactor": 0.0,
        "roughnessFactor": 0.6
      }
    }
  ],
  "meshes": [
    {
      "name": "Object_0",
      "primitives": [
        {
          "attributes": {
            "NORMAL": 1,
            "POSITION": 0
          },
          "indices": 2,
          "material": 0,
          "mode": 4
        }
      ]
    },
    {
      "name": "Object_1",
      "primitives": [
        {
          "attributes": {
            "NORMAL": 4,
            "POSITION": 3
          },
          "indices": 5,
          "material": 0,
          "mode": 4
        }
      ]
    },
    {
      "name": "Object_2",
      "primitives": [
        {
          "attributes": {
            "NORMAL": 7,
            "POSITION": 6
          },
          "indices": 8,
          "material": 0,
          "mode": 4
        }
      ]
    },
    {
      "name": "Object_3",
      "primitives": [
        {
          "attributes": {
            "NORMAL": 10,
            "POSITION": 9
          },
          "indices": 11,
          "material": 0,
          "mode": 4
        }
      ]
    },
    {
      "name": "Object_4",
      "primitives": [
        {
          "attributes": {
            "NORMAL": 13,
            "POSITION": 12
          },
          "indices": 14,
          "material": 0,
          "mode": 4
        }
      ]
    },
    {
      "name": "Object_5",
      "primitives": [
        {
          "attributes": {
            "NORMAL": 16,
            "POSITION": 15
          },
          "indices": 17,
          "material": 0,
          "mode": 4
        }
      ]
    },
    {
      "name": "Object_6",
      "primitives": [
        {
          "attributes": {
            "NORMAL": 19,
            "POSITION": 18
          },
          "indices": 20,
          "material": 0,
          "mode": 4
        }
      ]
    },
    {
      "name": "Object_7",
      "primitives": [
        {
          "attributes": {
            "NORMAL": 22,
            "POSITION": 21
          },
          "indices": 23,
          "material": 0,
          "mode": 4
        }
      ]
    },
    {
      "name": "Object_8",
      "primitives": [
        {
          "attributes": {
            "NORMAL": 25,
            "POSITION": 24
          },
          "indices": 26,
          "material": 0,
          "mode": 4
        }
      ]
    },
    {
      "name": "Object_9",
      "primitives": [
        {
          "attributes": {
            "NORMAL": 28,
            "POSITION": 27
          },
          "indices": 29,
          "material": 0,
          "mode": 4
        }
      ]
    },
    {
      "name": "Object_10",
      "primitives": [
        {
          "attributes": {
            "NORMAL": 31,
            "POSITION": 30
          },
          "indices": 32,
          "material": 0,
          "mode": 4
        }
      ]
    },
    {
      "name": "Object_11",
      "primitives": [
        {
          "attributes": {
            "NORMAL": 34,
            "POSITION": 33
          },
          "indices": 35,
          "material": 0,
          "mode": 4
        }
      ]
    },
    {
      "name": "Object_12",
      "primitives": [
        {
          "attributes": {
            "NORMAL": 37,
            "POSITION": 36
          },
          "indices": 38,
          "material": 0,
          "mode": 4
        }
      ]
    },
    {
      "name": "Object_13",
      "primitives": [
        {
          "attributes": {
            "NORMAL": 40,
            "POSITION": 39
          },
          "indices": 41,
          "material": 0,
          "mode": 4
        }
      ]
    },
    {
      "name": "Object_14",
      "primitives": [
        {
          "attributes": {
            "NORMAL": 43,
            "POSITION": 42
          },
          "indices": 44,
          "material": 0,
          "mode": 4
        }
      ]
    },
    {
      "name": "Object_15",
      "primitives": [
        {
          "attributes": {
            "NORMAL": 46,
            "POSITION": 45
          },
          "indices": 47,
          "material": 0,
          "mode": 4
        }
      ]
    },
    {
      "name": "Object_16",
      "primitives": [
        {
          "attributes": {
            "NORMAL": 49,
            "POSITION": 48
          },
          "indices": 50,
          "material": 0,
          "mode": 4
        }
      ]
    },
    {
      "name": "Object_17",
      "primitives": [
        {
          "attributes": {
            "NORMAL": 52,
            "POSITION": 51
          },
          "indices": 53,
          "material": 0,
          "mode": 4
        }
      ]
    },
    {
      "name": "Object_18",
      "primitives": [
        {
          "attributes": {
            "NORMAL": 55,
            "POSITION": 54
          },
          "indices": 56,
          "material": 0,
          "mode": 4
        }
      ]
    },
    {
      "name": "Object_19",
      "primitives": [
        {
          "attributes": {
            "NORMAL": 58,
            "POSITION": 57
          },
          "indices": 59,
          "material": 0,
          "mode": 4
        }
      ]
    },
    {
      "name": "Object_20",
      "primitives": [
        {
          "attributes": {
            "NORMAL": 61,
            "POSITION": 60
          },
          "indices": 62,
          "material": 0,
          "mode": 4
        }
      ]
    },
    {
      "name": "Object_21",
      "primitives": [
        {
          "attributes": {
            "NORMAL": 64,
            "POSITION": 63
          },
          "indices": 65,
          "material": 0,
          "mode": 4
        }
      ]
    },
    {
      "name": "Object_22",
      "primitives": [
        {
          "attributes": {
            "NORMAL": 67,
            "POSITION": 66
          },
          "indices": 68,
          "material": 0,
          "mode": 4
        }
      ]
    },
    {
      "name": "Object_23",
      "primitives": [
        {
          "attributes": {
            "NORMAL": 70,
            "POSITION": 69
          },
          "indices": 71,
          "material": 0,
          "mode": 4
        }
      ]
    },
    {
      "name": "Object_24",
      "primitives": [
        {
          "attributes": {
            "NORMAL": 73,
            "POSITION": 72
          },
          "indices": 74,
          "material": 0,
          "mode": 4
        }
      ]
    }
  ],
  "nodes": [
    {
      "children": [
        1
      ],
      "matrix": [
        0.09353472292423248,
        0.6980783343315126,
        -0.7098858356475829,
        0.0,
        -0.007253818679600954,
        0.7134705781936644,
        0.7006476521492006,
        0.0,
        0.9955896139144897,
        -0.06038549914956094,
        0.07179800420999526,
        0.0,
        0.0,
        0.0,
        0.0,
        1.0
      ],
      "name": "Sketchfab_model"
    },
    {
      "children": [
        2,
        3,
        4,
        5,
        6,
        7,
        8,
        9,
        10,
        11,
        12,
        13,
        14,
        15,
        16,
        17,
        18,
        19,
        20,
        21,
        22,
        23,
        24,
        25,
        26
      ],
      "name": "_2025_11_7_10_33_2.stl.cleaner.materialmerger.gles"
    },
    {
      "mesh": 0,
      "name": "Object_2"
    },
    {
      "mesh": 1,
      "name": "Object_3"
    },
    {
      "mesh": 2,
      "name": "Object_4"
    },
    {
      "mesh": 3,
      "name": "Object_5"
    },
    {
      "mesh": 4,
      "name": "Object_6"
    },
    {
      "mesh": 5,
      "name": "Object_7"
    },
    {
      "mesh": 6,
      "name": "Object_8"
    },
    {
      "mesh": 7,
      "name": "Object_9"
    },
    {
      "mesh": 8,
      "name": "Object_10"
    },
    {
      "mesh": 9,
      "name": "Object_11"
    },
    {
      "mesh": 10,
      "name": "Object_12"
    },
    {
      "mesh": 11,
      "name": "Object_13"
    },
    {
      "mesh": 12,
      "name": "Object_14"
    },
    {
      "mesh": 13,
      "name": "Object_15"
    },
    {
      "mesh": 14,
      "name": "Object_16"
    },
    {
      "mesh": 15,
      "name": "Object_17"
    },
    {
      "mesh": 16,
      "name": "Object_18"
    },
    {
      "mesh": 17,
      "name": "Object_19"
    },
    {
      "mesh": 18,
      "name": "Object_20"
    },
    {
      "mesh": 19,
      "name": "Object_21"
    },
    {
      "mesh": 20,
      "name": "Object_22"
    },
    {
      "mesh": 21,
      "name": "Object_23"
    },
    {
      "mesh": 22,
      "name": "Object_24"
    },
    {
      "mesh": 23,
      "name": "Object_25"
    },
    {
      "mesh": 24,
      "name": "Object_26"
    }
  ],
  "scene": 0,
  "scenes": [
    {
      "name": "Sketchfab_Scene",
      "nodes": [
        0
      ]
    }
  ]
}
